#!OML:ASF H:\ManfredETheater\Project 1\Capture day 1\Session 1\subject.ASF
:FULLY-SPECIFIED
:DEGREES
227
root 1.99604 15.9935 15.8049 -148.937 -2.36361 183.523
lowerback 15.8572 2.19202 7.22839
upperback 0.308872 4.14137 2.44528
thorax -8.23877 1.6284 -2.35505
lowerneck -12.7977 -3.27052 -3.16584
upperneck -2.63897 -4.36286 0.76958
head 1.41473 -2.33357 0.555838
rclavicle -2.14687e-014 -8.34896e-014
rhumerus -14.5314 17.3951 -82.6042
rradius 121.283
rwrist -16.8807
rhand -26.1928 11.0339
rfingers 7.12502
rthumb 0.359489 -18.9455
lclavicle -2.14687e-014 -8.34896e-014
lhumerus -71.9191 -9.17718 89.4213
lradius 90.5059
lwrist 13.8944
lhand -28.6876 -3.23357
lfingers 7.12502
lthumb -2.04997 26.7363
rfemur 0.559346 4.7922 26.294
rtibia 21.7808
rfoot 24.3388 -5.59196
rtoes -9.1905
lfemur -81.9146 5.6546 -22.5805
ltibia 77.0288
lfoot -17.4065 -16.2586
ltoes -13.1577
228
root 1.99959 16.0169 15.3847 -148.965 -2.35733 183.748
lowerback 15.7427 2.32266 7.32335
upperback 0.384476 4.30717 2.34853
thorax -8.06205 1.71176 -2.53883
lowerneck -12.9692 -3.44574 -3.2056
upperneck -2.61394 -4.58854 1.1511
head 1.47005 -2.4358 0.668138
rclavicle 2.62396e-014 1.82882e-014
rhumerus -13.8521 17.2023 -81.7585
rradius 121.904
rwrist -17.0599
rhand -26.3829 11.1811
rfingers 7.12502
rthumb 0.175973 -18.7986
lclavicle 2.62396e-014 1.82882e-014
lhumerus -72.9847 -8.96046 88.8105
lradius 90.7021
lwrist 14.3173
lhand -28.5571 -3.27153
lfingers 7.12502
lthumb -1.92395 26.6995
rfemur 0.879779 4.91976 26.4791
rtibia 22.3663
rfoot 26.8956 -6.35164
rtoes -6.74464
lfemur -81.5312 5.64219 -22.5818
ltibia 75.63
lfoot -16.9763 -15.7235
ltoes -13.6684
229
root 2.00708 16.0345 14.9656 -149.063 -2.39465 183.909
lowerback 15.6715 2.44064 7.30223
upperback 0.491347 4.43754 2.28381
thorax -7.88922 1.78298 -2.61669
lowerneck -13.1571 -3.60955 -3.2873
upperneck -2.59048 -4.79482 1.52744
head 1.5297 -2.52863 0.786777
rclavicle -1.19271e-014 -1.98785e-014
rhumerus -13.4223 17.016 -81.0723
rradius 122.174
rwrist -17.0415
rhand -26.4239 11.3353
rfingers 7.12502
rthumb 0.136299 -18.6444
lclavicle -1.19271e-014 -1.98785e-014
lhumerus -73.7327 -8.70546 88.3174
lradius 90.8794
lwrist 14.492
lhand -28.4337 -3.33992
lfingers 7.12502
lthumb -1.80483 26.6322
rfemur 0.827621 4.88802 26.6941
rtibia 23.9834
rfoot 28.3255 -6.89729
rtoes -4.47183
lfemur -80.8855 5.61307 -22.5974
ltibia 74.544
lfoot -16.6358 -15.0826
ltoes -13.7544
230
root 2.01794 16.0458 14.5478 -149.24 -2.47117 183.994
lowerback 15.6632 2.53532 7.16785
upperback 0.630348 4.52059 2.24924
thorax -7.73218 1.83491 -2.59157
lowerneck -13.3554 -3.75223 -3.40166
upperneck -2.58992 -4.97127 1.87197
head 1.58406 -2.60835 0.902703
rclavicle -3.18055e-015 -2.06736e-014
rhumerus -13.2747 16.8712 -80.6013
rradius 122.067
rwrist -16.7775
rhand -26.3217 11.4567
rfingers 7.12502
rthumb 0.234994 -18.5229
lclavicle -3.18055e-015 -2.06736e-014
lhumerus -74.1622 -8.40206 87.9597
lradius 91.0408
lwrist 14.4341
lhand -28.3454 -3.38698
lfingers 7.12502
lthumb -1.71951 26.5858
rfemur 0.455574 4.68453 26.9083
rtibia 26.4854
rfoot 28.8582 -7.51302
rtoes -2.05608
lfemur -79.9745 5.54571 -22.6189
ltibia 73.8192
lfoot -16.3761 -14.3471
ltoes -13.3544
231
root 2.0314 16.0505 14.1314 -149.499 -2.59955 183.981
lowerback 15.736 2.58889 6.93576
upperback 0.794113 4.5374 2.23705
thorax -7.60948 1.85639 -2.47838
lowerneck -13.543 -3.86413 -3.53959
upperneck -2.63898 -5.10748 2.16882
head 1.61908 -2.67094 1.01055
rclavicle 2.3059e-014 -2.62396e-014
rhumerus -13.4486 16.7853 -80.3931
rradius 121.574
rwrist -16.2758
rhand -26.1086 11.5135
rfingers 7.12502
rthumb 0.440903 -18.4658
lclavicle 2.3059e-014 -2.62396e-014
lhumerus -74.2878 -8.05002 87.7497
lradius 91.1918
lwrist 14.2163
lhand -28.3113 -3.5466
lfingers 7.12502
lthumb -1.68653 26.4265
rfemur -0.182321 4.30985 27.0895
rtibia 29.6798
rfoot 28.7227 -8.48625
rtoes 0.552404
lfemur -78.7983 5.39949 -22.6424
ltibia 73.4714
lfoot -16.245 -13.6067
ltoes -12.4903
232
root 2.04645 16.0492 13.7163 -149.824 -2.77608 183.865
lowerback 15.8915 2.59198 6.62625
upperback 0.970902 4.47951 2.23521
thorax -7.53213 1.84177 -2.29998
lowerneck -13.7112 -3.94042 -3.69073
upperneck -2.74735 -5.19876 2.41502
head 1.62886 -2.71456 1.10813
rclavicle 7.95139e-016 -5.56597e-015
rhumerus -13.9761 16.7593 -80.4758
rradius 120.707
rwrist -15.6005
rhand -25.8424 11.4719
rfingers 7.12502
rthumb 0.698003 -18.5067
lclavicle 7.95139e-016 -5.56597e-015
lhumerus -74.1254 -7.65181 87.6929
lradius 91.3457
lwrist 13.9225
lhand -28.3195 -3.69695
lfingers 7.12502
lthumb -1.69452 26.2761
rfemur -1.06348 3.75474 27.2014
rtibia 33.3955
rfoot 28.0794 -9.73499
rtoes 3.06595
lfemur -77.3717 5.15535 -22.6696
ltibia 73.4734
lfoot -16.3144 -12.8951
ltoes -11.262
233
root 2.06186 16.0426 13.3018 -150.188 -2.98213 183.652
lowerback 16.1212 2.54371 6.26479
upperback 1.14694 4.34951 2.22443
thorax -7.50519 1.79129 -2.09091
lowerneck -13.8472 -3.98123 -3.8473
upperneck -2.92718 -5.24716 2.62613
head 1.60703 -2.74018 1.19928
rclavicle -3.73715e-014 -2.94201e-014
rhumerus -14.8755 16.769 -80.8636
rradius 119.489
rwrist -14.8552
rhand -25.5732 11.3183
rfingers 7.12502
rthumb 0.957957 -18.6593
lclavicle -3.73715e-014 -2.94201e-014
lhumerus -73.6862 -7.2224 87.7822
lradius 91.5056
lwrist 13.6276
lhand -28.3282 -3.85017
lfingers 7.12502
lthumb -1.70285 26.1228
rfemur -2.18998 3.03797 27.2132
rtibia 37.5048
rfoot 27.0277 -11.0846
rtoes 5.20984
lfemur -75.7232 4.81137 -22.7091
ltibia 73.7482
lfoot -16.6626 -12.1718
ltoes -9.84334
234
root 2.07691 16.0305 12.8882 -150.565 -3.21106 183.32
lowerback 16.4154 2.44026 5.8565
upperback 1.31094 4.1423 2.1825
thorax -7.5319 1.70282 -1.87522
lowerneck -13.9534 -3.98874 -3.99744
upperneck -3.17736 -5.25751 2.81529
head 1.55436 -2.75002 1.28579
rclavicle -3.57812e-014 7.15625e-015
rhumerus -16.1462 16.7729 -81.5503
rradius 117.954
rwrist -14.1558
rhand -25.3496 11.0596
rfingers 7.12502
rthumb 1.17392 -18.9169
lclavicle -3.57812e-014 7.15625e-015
lhumerus -72.975 -6.77944 88.006
lradius 91.6673
lwrist 13.3879
lhand -28.2996 -4.02191
lfingers 7.12502
lthumb -1.6753 25.9513
rfemur -3.5661 2.1713 27.0888
rtibia 41.9161
rfoot 25.634 -12.3241
rtoes 7.16749
lfemur -73.8785 4.35512 -22.7977
ltibia 74.1856
lfoot -17.3265 -11.4144
ltoes -8.65939
235
root 2.09109 16.0139 12.475 -150.929 -3.44024 182.857
lowerback 16.7619 2.28603 5.3966
upperback 1.45461 3.86091 2.08491
thorax -7.61103 1.57879 -1.67504
lowerneck -14.0448 -3.97068 -4.13031
upperneck -3.48343 -5.2412 3.00673
head 1.47913 -2.74902 1.37248
rclavicle -3.73715e-014 -3.97569e-014
rhumerus -17.762 16.7133 -82.517
rradius 116.131
rwrist -13.6118
rhand -25.1792 10.713
rfingers 7.12502
rthumb 1.33849 -19.2626
lclavicle -3.73715e-014 -3.97569e-014
lhumerus -71.9939 -6.3491 88.3432
lradius 91.8223
lwrist 13.2145
lhand -28.2168 -4.17348
lfingers 7.12502
lthumb -1.59529 25.8003
rfemur -5.20073 1.18967 26.7932
rtibia 46.5594
rfoot 23.9183 -13.2802
rtoes 8.75938
lfemur -71.8709 3.7965 -22.9764
ltibia 74.6731
lfoot -18.2865 -10.5988
ltoes -7.88042
236
root 2.10449 15.9941 12.0621 -151.253 -3.67013 182.251
lowerback 17.1398 2.08525 4.88291
upperback 1.5773 3.5068 1.92065
thorax -7.72952 1.42085 -1.49844
lowerneck -14.1363 -3.92701 -4.22033
upperneck -3.84836 -5.20267 3.19284
head 1.3819 -2.74042 1.45186
rclavicle -2.54444e-014 -2.46493e-014
rhumerus -19.654 16.5302 -83.7141
rradius 114.035
rwrist -13.2864
rhand -25.0816 10.3109
rfingers 7.12502
rthumb 1.43279 -19.664
lclavicle -2.54444e-014 -2.46493e-014
lhumerus -70.7311 -5.95993 88.7797
lradius 91.951
lwrist 13.0857
lhand -28.0859 -4.29005
lfingers 7.12502
lthumb -1.4689 25.6846
rfemur -7.11017 0.110183 26.3171
rtibia 51.3708
rfoot 21.983 -13.8078
rtoes 9.89789
lfemur -69.7487 3.14301 -23.267
ltibia 75.1021
lfoot -19.4708 -9.75671
ltoes -7.58384
237
root 2.11713 15.9717 11.6492 -151.526 -3.87843 181.521
lowerback 17.5404 1.85589 4.31433
upperback 1.67818 3.10021 1.69066
thorax -7.88143 1.23894 -1.34638
lowerneck -14.2333 -3.86827 -4.27025
upperneck -4.26628 -5.15552 3.38474
head 1.26662 -2.73102 1.52702
rclavicle -3.02153e-014 7.95139e-016
rhumerus -21.7596 16.1672 -85.0763
rradius 111.675
rwrist -13.2038
rhand -25.0707 9.90678
rfingers 7.12502
rthumb 1.44328 -20.0681
lclavicle -3.02153e-014 7.95139e-016
lhumerus -69.1875 -5.64086 89.31
lradius 92.0233
lwrist 12.9504
lhand -27.9477 -4.39269
lfingers 7.12502
lthumb -1.33544 25.5829
rfemur -9.29116 -1.02649 25.6693
rtibia 56.2859
rfoot 19.8701 -13.8712
rtoes 10.7153
lfemur -67.5539 2.43556 -23.6688
ltibia 75.3966
lfoot -20.806 -8.91895
ltoes -7.88283
238
root 2.12905 15.9475 11.2362 -151.734 -4.05246 180.689
lowerback 17.9437 1.61337 3.68948
upperback 1.75829 2.65779 1.40913
thorax -8.05392 1.04139 -1.20482
lowerneck -14.3313 -3.7941 -4.27559
upperneck -4.74265 -5.10088 3.55993
head 1.12984 -2.72273 1.58989
rclavicle 2.94201e-014 -3.97569e-015
rhumerus -23.9972 15.5778 -86.515
rradius 109.04
rwrist -13.318
rhand -25.1629 9.56575
rfingers 7.12502
rthumb 1.35428 -20.4097
lclavicle 2.94201e-014 -3.97569e-015
lhumerus -67.3639 -5.40907 89.9384
lradius 92.0099
lwrist 12.7593
lhand -27.8424 -4.45547
lfingers 7.12502
lthumb -1.23375 25.5207
rfemur -11.7516 -2.18586 24.8709
rtibia 61.2528
rfoot 17.5848 -13.5111
rtoes 10.9536
lfemur -65.3348 1.70407 -24.1605
ltibia 75.521
lfoot -22.1801 -8.16516
ltoes -8.58278
239
root 2.14023 15.9214 10.8234 -151.863 -4.19237 179.791
lowerback 18.3284 1.36802 3.02159
upperback 1.81441 2.19421 1.09828
thorax -8.23804 0.835139 -1.05971
lowerneck -14.4145 -3.70017 -4.23686
upperneck -5.28123 -5.03369 3.69873
head 0.966901 -2.71392 1.63477
rclavicle -1.82882e-014 5.56597e-015
rhumerus -26.2948 14.7395 -87.9423
rradius 106.115
rwrist -13.5674
rhand -25.3848 9.32208
rfingers 7.12502
rthumb 1.13989 -20.6546
lclavicle -1.82882e-014 5.56597e-015
lhumerus -65.2736 -5.27886 90.6718
lradius 91.8905
lwrist 12.4756
lhand -27.8038 -4.52424
lfingers 7.12502
lthumb -1.19643 25.4522
rfemur -14.5007 -3.34734 23.9643
rtibia 66.2141
rfoot 15.1619 -12.8008
rtoes 10.6356
lfemur -63.1448 0.98163 -24.713
ltibia 75.4771
lfoot -23.5676 -7.56456
ltoes -9.59869
